<?xml version="1.0" encoding="UTF-8"?>
<svg version="1.1" xmlns="http://www.w3.org/2000/svg" width="512" height="512">
<path d="M0 0 C0.68436668 -0.00297112 1.36873335 -0.00594224 2.07383841 -0.0090034 C4.37221054 -0.01769058 6.67053059 -0.01919866 8.96891785 -0.02069092 C10.61477774 -0.02531908 12.26063657 -0.03034374 13.90649414 -0.03573608 C18.38178283 -0.04886228 22.85705652 -0.05530547 27.33236146 -0.05974674 C30.12799612 -0.06267711 32.92362667 -0.06678185 35.71925926 -0.07125092 C44.46513246 -0.08492643 53.21099628 -0.09459282 61.95687944 -0.09845281 C72.05460883 -0.10293384 82.15220287 -0.12048358 92.2498911 -0.1494534 C100.05380526 -0.17106574 107.85768132 -0.18115685 115.66162509 -0.18249393 C120.3231636 -0.18354228 124.9845749 -0.18945645 129.64608192 -0.20731354 C134.03161332 -0.22378647 138.41692177 -0.22595353 142.80247307 -0.21717453 C144.41090619 -0.21640374 146.01935125 -0.22075246 147.62775421 -0.23063278 C149.82623878 -0.24334448 152.02393277 -0.23748038 154.22241211 -0.22705078 C155.45187467 -0.22851734 156.68133722 -0.2299839 157.94805622 -0.2314949 C163.32193806 0.36450024 167.21561454 2.4632275 170.61418152 6.64044189 C171.10531433 7.22825439 171.59644714 7.81606689 172.10246277 8.42169189 C174.79885249 12.28622439 174.43716358 16.32217475 174.41520691 20.82476807 C174.41535294 21.60549179 174.41549896 22.38621552 174.41564941 23.19059753 C174.41495266 25.77156348 174.40717134 28.3524573 174.39933777 30.93341064 C174.39747275 32.72274232 174.39604924 34.5120745 174.39505005 36.30140686 C174.3912315 41.01141774 174.38140685 45.72139779 174.37034607 50.43139648 C174.36011772 55.23740217 174.35554937 60.04341284 174.35050964 64.84942627 C174.33978401 74.27977836 174.32271551 83.71010756 174.30168152 93.14044189 C174.87088318 93.109021 175.44008484 93.0776001 176.02653503 93.04522705 C178.63866942 92.91948807 181.25016646 92.84216351 183.86418152 92.76544189 C184.75943542 92.71516846 185.65468933 92.66489502 186.57707214 92.61309814 C192.54314986 92.48197556 195.69222898 93.40223194 200.03971863 97.54815674 C203.89029335 102.40663001 202.52639416 109.85925218 202.54191589 115.76397705 C202.5516168 118.00052143 202.58264924 120.23614451 202.61418152 122.47247314 C202.62071268 123.90085313 202.62596271 125.32923965 202.62980652 126.75762939 C202.63915222 128.05297607 202.64849792 129.34832275 202.65812683 130.68292236 C202.27974242 134.35325119 201.35431417 136.13898579 199.30168152 139.14044189 C199.15090675 141.253407 199.15090675 141.253407 199.61418152 143.32794189 C201.16444352 154.00360976 200.81561357 163.90487732 194.24308777 172.98419189 C188.52111445 179.54564528 183.61463972 183.47293664 175.30168152 186.14044189 C175.28766296 187.52211548 175.28766296 187.52211548 175.27336121 188.93170166 C175.22872805 192.42687181 175.16685029 195.92092978 175.09416199 199.41558838 C175.06634245 200.91352637 175.04493911 202.41160051 175.03068542 203.909729 C174.89432821 217.4500004 173.06345608 230.14619176 166.67668152 242.32794189 C166.33749695 242.98665283 165.99831238 243.64536377 165.64884949 244.32403564 C159.36855692 256.02834613 150.29782169 264.80968178 139.30168152 272.14044189 C140.29425964 272.67411377 141.28683777 273.20778564 142.30949402 273.75762939 C157.30120124 281.92901115 170.03332275 291.27876905 182.30168152 303.14044189 C183.29941589 304.06083252 183.29941589 304.06083252 184.31730652 304.99981689 C212.69208782 331.78348896 225.55517202 372.2483524 239.19624329 407.59706116 C242.23794324 415.45654503 245.35166504 423.28493356 248.5106678 431.09778214 C249.74114249 434.14294746 250.96632316 437.19024404 252.19255066 440.23712158 C253.61085363 443.76077116 255.03311525 447.28249544 256.46961975 450.79876709 C257.79582353 454.04713236 259.10501751 457.30189614 260.41105652 460.55841064 C261.00482841 461.99258583 261.00482841 461.99258583 261.6105957 463.45573425 C263.79204685 468.94723037 264.9311728 473.22099333 264.30168152 479.14044189 C262.23918152 481.70294189 262.23918152 481.70294189 259.30168152 483.14044189 C255.74878107 483.07918499 253.36750579 482.88651889 250.42668152 480.82794189 C249.30168152 479.14044189 249.30168152 479.14044189 248.30168152 475.14044189 C224.21168152 475.14044189 200.12168152 475.14044189 175.30168152 475.14044189 C174.97168152 476.79044189 174.64168152 478.44044189 174.30168152 480.14044189 C172.67668152 482.01544189 172.67668152 482.01544189 170.30168152 483.14044189 C166.78340797 483.0169937 164.30512525 482.87630063 161.42668152 480.76544189 C160.30168152 479.14044189 160.30168152 479.14044189 159.30168152 476.14044189 C153.03168152 475.81044189 146.76168152 475.48044189 140.30168152 475.14044189 C139.97168152 476.79044189 139.64168152 478.44044189 139.30168152 480.14044189 C137.73918152 482.01544189 137.73918152 482.01544189 135.30168152 483.14044189 C132.45670797 483.33546024 129.99497963 483.09539048 127.30168152 482.14044189 C125.30775599 479.71034516 124.30168152 478.30134474 124.30168152 475.14044189 C93.28168152 475.14044189 62.26168152 475.14044189 30.30168152 475.14044189 C29.97168152 476.79044189 29.64168152 478.44044189 29.30168152 480.14044189 C26.28829222 482.7993148 24.71629944 483.14759048 20.67668152 483.07794189 C17.30168152 482.14044189 17.30168152 482.14044189 15.36418152 480.26544189 C14.30168152 478.14044189 14.30168152 478.14044189 14.30168152 475.14044189 C8.03168152 475.14044189 1.76168152 475.14044189 -4.69831848 475.14044189 C-5.35831848 477.12044189 -6.01831848 479.10044189 -6.69831848 481.14044189 C-9.30714513 483.36277571 -10.79798926 483.13694467 -14.26081848 483.01544189 C-17.69831848 482.14044189 -17.69831848 482.14044189 -19.63581848 480.26544189 C-20.69831848 478.14044189 -20.69831848 478.14044189 -20.69831848 475.14044189 C-28.94831848 475.14044189 -37.19831848 475.14044189 -45.69831848 475.14044189 C-45.61981617 481.36230639 -45.61981617 481.36230639 -45.5181427 487.58380127 C-45.47445435 494.51192764 -45.61539479 501.64649862 -50.57331848 507.01544189 C-51.06574036 507.56973877 -51.55816223 508.12403564 -52.06550598 508.69512939 C-55.31596949 511.57233394 -58.15012736 512.39114751 -62.44758606 512.43096924 C-63.85473625 512.4501088 -63.85473625 512.4501088 -65.29031372 512.46963501 C-66.2976506 512.47186066 -67.30498749 512.4740863 -68.34284973 512.47637939 C-69.38599838 512.48303619 -70.42914703 512.48969299 -71.50390625 512.49655151 C-73.71037535 512.50667251 -75.91687502 512.5113687 -78.12336731 512.51104736 C-81.48806148 512.51541237 -84.85143516 512.55171652 -88.21589661 512.58966064 C-90.36237651 512.59553063 -92.50886263 512.5994988 -94.65534973 512.60137939 C-96.15724602 512.62293594 -96.15724602 512.62293594 -97.68948364 512.64492798 C-103.90893649 512.60453999 -107.63961943 511.83854837 -112.69831848 508.14044189 C-118.10043885 501.17454984 -117.97183079 495.33480597 -118.04841614 486.79864502 C-118.06497599 485.4465819 -118.09226772 484.09460635 -118.13044739 482.74298096 C-118.1853972 480.7848565 -118.20398448 478.8258191 -118.22175598 476.86700439 C-118.25148499 475.11250977 -118.25148499 475.11250977 -118.28181458 473.3225708 C-117.52774075 469.21018659 -115.9122502 467.71873068 -112.69831848 465.14044189 C-112.03831848 465.14044189 -111.37831848 465.14044189 -110.69831848 465.14044189 C-110.69831848 459.53044189 -110.69831848 453.92044189 -110.69831848 448.14044189 C-112.34831848 447.48044189 -113.99831848 446.82044189 -115.69831848 446.14044189 C-118.15223417 442.45956836 -117.92634607 439.69688601 -117.82331848 435.45294189 C-117.81429504 434.75104736 -117.80527161 434.04915283 -117.79597473 433.32598877 C-117.77245552 431.59732664 -117.73658561 429.86884044 -117.69831848 428.14044189 C-118.97706848 428.19844971 -120.25581848 428.25645752 -121.57331848 428.31622314 C-123.28161504 428.36315437 -124.98995143 428.4086509 -126.69831848 428.45294189 C-127.53749817 428.49483643 -128.37667786 428.53673096 -129.24128723 428.57989502 C-134.64851657 428.68468629 -138.28871708 427.81425934 -142.90925598 425.00445557 C-147.91716963 419.78673985 -149.29319569 413.82120879 -149.20002747 406.80010986 C-149.20813194 405.613125 -149.20813194 405.613125 -149.21640015 404.40216064 C-149.22880835 401.81192494 -149.21245314 399.2228179 -149.19441223 396.63262939 C-149.19456737 394.81997622 -149.19605887 393.00732271 -149.19882202 391.19467163 C-149.20020236 387.40707628 -149.18770689 383.6198613 -149.16487122 379.83233643 C-149.13644696 374.98574674 -149.13923982 370.13978653 -149.15196133 365.29314995 C-149.15892564 361.55441947 -149.1511213 357.81583372 -149.1387043 354.07712173 C-149.13419999 352.29020874 -149.13384406 350.50328017 -149.1377697 348.71636581 C-149.14069039 346.21791615 -149.12413605 343.72032573 -149.10237122 341.22198486 C-149.10687286 340.48936432 -149.11137451 339.75674377 -149.11601257 339.00192261 C-149.02967549 333.01652847 -147.43820955 329.08108962 -143.46394348 324.64825439 C-142.63378723 323.86192627 -141.80363098 323.07559814 -140.94831848 322.26544189 C-137.89854097 319.31262263 -134.94812071 316.37473309 -132.19831848 313.14044189 C-119.94243942 298.91899733 -119.94243942 298.91899733 -111.69831848 295.14044189 C-111.03831848 295.14044189 -110.37831848 295.14044189 -109.69831848 295.14044189 C-109.73647234 284.62146634 -109.79597462 274.10284402 -109.88222122 263.5841465 C-109.92161568 258.69909 -109.95384342 253.8142116 -109.96931458 248.92901611 C-109.98453423 244.20848743 -110.01907333 239.48844864 -110.0666275 234.76813889 C-110.08138676 232.97340545 -110.08935634 231.17860206 -110.09020233 229.38380814 C-110.10602125 212.39004673 -110.10602125 212.39004673 -118.79597473 198.16387939 C-119.58246399 197.33984619 -120.36895325 196.51581299 -121.17927551 195.66680908 C-122.01055969 194.83310791 -122.84184387 193.99940674 -123.69831848 193.14044189 C-124.54636047 192.2835376 -125.39440247 191.4266333 -126.2681427 190.54376221 C-129.77072813 187.04052245 -133.30793357 183.57368611 -136.85261536 180.11309814 C-137.70790833 179.26876221 -138.56320129 178.42442627 -139.44441223 177.55450439 C-140.21454651 176.8012085 -140.98468079 176.0479126 -141.77815247 175.27178955 C-144.95741756 171.74286593 -145.69831848 169.95341363 -145.69831848 165.14044189 C-146.5582843 165.16400757 -146.5582843 165.16400757 -147.43562317 165.18804932 C-166.0961121 165.63154469 -181.75018617 164.15676479 -196.51081848 151.45294189 C-206.54025709 141.79924594 -213.52941055 128.92239836 -213.85945129 114.79669189 C-213.87948196 113.07800162 -213.89311633 111.35922872 -213.90144348 109.64044189 C-213.90714355 108.72714111 -213.91284363 107.81384033 -213.91871643 106.87286377 C-213.9281395 104.94644318 -213.93468968 103.02000666 -213.93855286 101.09356689 C-213.94828498 98.15057393 -213.97934436 95.20827196 -214.01081848 92.26544189 C-214.01734668 90.39044603 -214.02259787 88.51544518 -214.02644348 86.64044189 C-214.03879028 85.76323486 -214.05113708 84.88602783 -214.06385803 83.98223877 C-214.04659688 79.24086624 -213.91454497 75.89825638 -210.69831848 72.14044189 C-206.3527059 68.48103127 -202.07705683 68.70255401 -196.66316223 68.74200439 C-195.78865921 68.73913422 -194.91415619 68.73626404 -194.01315308 68.73330688 C-192.16316582 68.73126892 -190.31315688 68.73678006 -188.46321106 68.74932861 C-185.66932736 68.76525093 -182.8769203 68.74954156 -180.08308411 68.73028564 C-161.74311316 68.70752829 -147.60477979 71.88228078 -133.91706848 84.85528564 C-119.18490592 100.0283756 -117.43551319 116.87523353 -117.69831848 137.14044189 C-116.85825256 137.1692041 -116.01818665 137.19796631 -115.15266418 137.2276001 C-110.30973133 138.50738849 -107.88401095 141.23610976 -104.42878723 144.74591064 C-103.74834854 145.4215657 -103.06790985 146.09722076 -102.36685181 146.79335022 C-100.92780884 148.2289935 -99.49504981 149.67095935 -98.06819153 151.11871338 C-95.92062515 153.29270691 -93.74818198 155.43914582 -91.57136536 157.58380127 C-81.27189654 167.85547075 -72.23700167 178.35575477 -67.26081848 192.26544189 C-66.80835754 193.48489502 -66.35589661 194.70434814 -65.88972473 195.96075439 C-62.30465633 207.64840648 -62.43040199 219.38213729 -62.50300598 231.46856689 C-62.50674387 233.31229498 -62.50958717 235.15602507 -62.51158142 236.99975586 C-62.51915681 241.81324916 -62.53875175 246.62661856 -62.56098938 251.44006348 C-62.58158032 256.36751633 -62.59061126 261.29498952 -62.60066223 266.22247314 C-62.62200437 275.86185 -62.6560652 285.50113558 -62.69831848 295.14044189 C-61.58754944 295.27925781 -60.4767804 295.41807373 -59.33235168 295.56109619 C-55.7475867 296.13258744 -54.47107992 296.5614237 -51.88581848 298.95294189 C-51.32249817 299.45438721 -50.75917786 299.95583252 -50.17878723 300.47247314 C-46.35453052 304.78106844 -46.13321139 309.35576284 -45.57331848 314.89044189 C-45.48695129 315.68321533 -45.40058411 316.47598877 -45.31159973 317.29278564 C-45.10031794 319.24127331 -44.89839381 321.19077166 -44.69831848 323.14044189 C-43.98546692 322.29481689 -43.27261536 321.44919189 -42.53816223 320.57794189 C-40.0505128 317.62900359 -37.55430275 314.68741059 -35.05671692 311.74688721 C-33.97333603 310.46567832 -32.90042173 309.17562113 -31.83113098 307.88262939 C-18.85890108 292.45793812 -2.23486941 281.70334232 15.30168152 272.14044189 C14.39289246 271.44821533 14.39289246 271.44821533 13.46574402 270.74200439 C-4.19277449 256.99552691 -16.5449768 240.7647294 -19.69831848 218.14044189 C-20.06618648 212.60109622 -20.20501044 207.06482863 -20.32331848 201.51544189 C-20.36158891 200.01932767 -20.40064556 198.52323335 -20.44050598 197.02716064 C-20.53550032 193.39843867 -20.619882 189.76956399 -20.69831848 186.14044189 C-21.51888733 185.74429688 -22.33945618 185.34815186 -23.18489075 184.94000244 C-24.80222107 184.14783325 -24.80222107 184.14783325 -26.45222473 183.33966064 C-27.52029358 182.81976563 -28.58836243 182.29987061 -29.688797 181.76422119 C-37.88613865 177.34136735 -41.62281063 170.75694735 -44.69831848 162.14044189 C-46.37422144 155.12062195 -46.01267718 149.19113623 -43.74519348 142.41387939 C-43.46295251 139.89239292 -43.46295251 139.89239292 -45.66218567 137.45928955 C-48.05902645 133.55249656 -48.21342633 131.31291629 -48.22956848 126.76544189 C-48.23339539 126.07788818 -48.23722229 125.39033447 -48.24116516 124.6819458 C-48.24387238 123.23645554 -48.23659476 121.79091528 -48.21980286 120.34552002 C-48.19837098 118.14583057 -48.21963972 115.94940602 -48.24519348 113.74981689 C-48.24254999 112.33835143 -48.23742455 110.92688797 -48.22956848 109.51544189 C-48.22505676 108.24442627 -48.22054504 106.97341064 -48.21589661 105.66387939 C-47.48251441 100.67134548 -45.35933026 97.72023112 -41.74617004 94.28375244 C-39.28217098 92.90810776 -37.74202426 92.79344755 -34.93269348 92.84747314 C-34.04324036 92.85714111 -33.15378723 92.86680908 -32.23738098 92.87677002 C-30.85679504 92.9144751 -30.85679504 92.9144751 -29.44831848 92.95294189 C-28.51245911 92.96647705 -27.57659973 92.98001221 -26.61238098 92.99395752 C-24.30710521 93.02924235 -22.00300788 93.07853908 -19.69831848 93.14044189 C-19.71926575 92.52523682 -19.74021301 91.91003174 -19.76179504 91.27618408 C-19.84508865 88.4811038 -19.89701861 85.68628475 -19.94831848 82.89044189 C-19.99859192 81.43831299 -19.99859192 81.43831299 -20.04988098 79.95684814 C-20.14861587 72.79856884 -20.14861587 72.79856884 -17.87019348 69.46856689 C-15.69831848 68.14044189 -15.69831848 68.14044189 -12.69831848 68.14044189 C-12.69831848 62.20044189 -12.69831848 56.26044189 -12.69831848 50.14044189 C-14.34831848 49.81044189 -15.99831848 49.48044189 -17.69831848 49.14044189 C-21.02933552 44.14391634 -20.10944925 38.1103218 -20.12385559 32.25445557 C-20.13568976 29.97770567 -20.18481332 27.70372401 -20.23542786 25.42755127 C-20.3216393 17.69645987 -20.34743311 11.05305099 -14.69831848 5.14044189 C-9.87485453 0.66151108 -6.46955476 0.01566739 0 0 Z " fill="#010101" transform="translate(230.6983184814453,-0.14044189453125)"/>
<path d="M0 0 C0.6536661 -0.00311998 1.30733219 -0.00623996 1.98080635 -0.00945449 C4.18114239 -0.01746092 6.38120466 -0.01110073 8.58154297 -0.00482178 C10.15492922 -0.00753047 11.72831421 -0.01109072 13.30169678 -0.01544189 C17.5825993 -0.02458266 21.86340574 -0.02101473 26.14431 -0.01468372 C30.6170427 -0.00963243 35.08976699 -0.01431274 39.5625 -0.01745605 C47.07472211 -0.02109825 54.58690494 -0.01628997 62.09912109 -0.0067749 C70.79353292 0.00411014 79.48785096 0.00058474 88.18226051 -0.01042771 C95.63705564 -0.01949339 103.09182247 -0.0207894 110.54662132 -0.01555037 C115.0034476 -0.0124267 119.46022975 -0.01203218 123.91705322 -0.01862335 C128.10637061 -0.02438575 132.29556667 -0.02042033 136.48487091 -0.00883484 C138.02563526 -0.0061823 139.56640975 -0.0069634 141.1071701 -0.01136017 C143.20407324 -0.01679385 145.30058313 -0.0100085 147.39746094 0 C148.57291473 0.00075405 149.74836853 0.0015081 150.95944214 0.002285 C153.69873047 0.25396729 153.69873047 0.25396729 155.69873047 2.25396729 C155.90501259 4.84660293 155.98556023 7.33358375 155.97961426 9.92816162 C155.9855565 10.72979721 155.99149875 11.53143279 155.99762106 12.35736036 C156.01504407 15.05926577 156.01801575 17.76099443 156.02099609 20.46295166 C156.03024997 22.39461142 156.04029896 24.32626751 156.05108643 26.25791931 C156.07738527 31.52123687 156.09023721 36.78450332 156.09910774 42.04787636 C156.10496841 45.34094047 156.11317845 48.63399063 156.12211609 51.92704773 C156.14949556 62.24272044 156.16880748 72.55836125 156.17651987 82.87406778 C156.18545239 94.75581556 156.22040111 106.63709985 156.27852106 118.5187068 C156.32192515 127.71386626 156.34193789 136.90889627 156.34460211 146.10415697 C156.34668847 151.58894179 156.35829056 157.07329183 156.39424133 162.55796814 C156.42749325 167.73244989 156.4313758 172.90617723 156.41396332 178.08072853 C156.4124372 179.9663325 156.42091198 181.8519794 156.44087982 183.73747826 C156.63911744 203.64697694 151.85540492 220.81029709 137.88623047 235.56646729 C123.77850623 249.01455434 108.05708266 252.39217147 89.21435547 252.45709229 C87.27638092 252.4656424 87.27638092 252.4656424 85.29925537 252.47436523 C82.57270928 252.48481665 79.84619215 252.49069741 77.11962891 252.49420166 C73.65921118 252.49967316 70.19918947 252.52369697 66.73889542 252.55217361 C63.3973914 252.57549534 60.05593645 252.57726183 56.71435547 252.58209229 C55.48896057 252.59443909 54.26356567 252.60678589 53.0010376 252.61950684 C36.17928953 252.5765243 22.15354905 247.29456337 9.91357422 235.57037354 C1.13280943 226.38696345 -4.11538815 216.52391587 -7.30126953 204.25396729 C-7.47548526 203.66951875 -7.64970098 203.08507021 -7.82919598 202.48291111 C-8.41175988 199.73227576 -8.42919336 197.17723874 -8.43257141 194.36430359 C-8.43657959 193.15991638 -8.44058777 191.95552917 -8.44471741 190.71464539 C-8.44418869 189.39658401 -8.44365997 188.07852264 -8.44311523 186.72052002 C-8.44614787 185.31594738 -8.44966961 183.91137572 -8.4536438 182.50680542 C-8.46152324 179.48444446 -8.46667402 176.46209527 -8.46993446 173.43972588 C-8.47584824 168.6624427 -8.49239052 163.88523385 -8.51127625 159.10798645 C-8.51761319 157.4723082 -8.52393882 155.83662991 -8.53025341 154.20095158 C-8.53341922 153.38195035 -8.53658503 152.56294913 -8.53984678 151.71912968 C-8.5819324 140.59834958 -8.6149206 129.47760498 -8.62719727 118.35675049 C-8.63556614 110.8528292 -8.65800929 103.34909281 -8.69655293 95.84526402 C-8.71634632 91.87407244 -8.72870724 87.90315745 -8.72371864 83.93191338 C-8.71908684 80.19957288 -8.73279593 76.46775774 -8.76073074 72.73552322 C-8.7676663 71.36451123 -8.76774373 69.99344518 -8.76053047 68.62243462 C-8.75169048 66.75383564 -8.76962867 64.88516664 -8.78901672 63.01664734 C-8.79140508 61.97007682 -8.79379343 60.9235063 -8.79625416 59.84522152 C-9.06828239 57.13972424 -9.06828239 57.13972424 -11.14578533 55.45629978 C-13.3713041 54.12730378 -13.3713041 54.12730378 -16.30126953 53.25396729 C-16.30126953 47.31396729 -16.30126953 41.37396729 -16.30126953 35.25396729 C-14.32126953 34.26396729 -12.34126953 33.27396729 -10.30126953 32.25396729 C-8.45148931 30.40418707 -9.10474645 27.36257541 -9.05517578 24.88287354 C-9.02230469 23.58672119 -8.98943359 22.29056885 -8.95556641 20.95513916 C-8.90810907 18.88349131 -8.86368254 16.81187208 -8.82446289 14.74005127 C-8.78481068 12.74580626 -8.73267417 10.75182173 -8.68017578 8.75787354 C-8.64259155 6.96071899 -8.64259155 6.96071899 -8.60424805 5.1272583 C-8.00846485 -0.52284039 -4.90352255 0.0031456 0 0 Z " fill="#DED1CC" transform="translate(234.30126953125,14.74603271484375)"/>
<path d="M0 0 C2.76949055 1.22496697 5.35400389 2.53509226 8 4 C9.00352131 4.53830161 10.00704262 5.07660322 11.04097366 5.631217 C15.82650306 8.62561221 19.35699999 10.90142202 21.08834076 16.55204964 C21.630864 20.93737681 21.48669689 25.31176962 21.36230469 29.71899414 C21.35891554 31.40502682 21.36082816 33.09107718 21.36761475 34.77709961 C21.37104548 39.33377601 21.30071884 43.88662946 21.21672726 48.44242024 C21.14149251 53.21079851 21.13464571 57.97927348 21.12042236 62.74815369 C21.08318727 71.76914247 20.98480409 80.78837728 20.86422849 89.80859512 C20.72989972 100.08163671 20.66407153 110.35476399 20.60388327 120.62846577 C20.47859485 141.75331443 20.26522233 162.87648469 20 184 C13.4 184 6.8 184 0 184 C-0.33 185.65 -0.66 187.3 -1 189 C-2.5625 190.875 -2.5625 190.875 -5 192 C-7.84497355 192.19501835 -10.30670189 191.95494859 -13 191 C-14.99392553 188.56990326 -16 187.16090285 -16 184 C-47.02 184 -78.04 184 -110 184 C-110.33 185.65 -110.66 187.3 -111 189 C-114.01338929 191.65887291 -115.58538207 192.00714858 -119.625 191.9375 C-123 191 -123 191 -124.9375 189.125 C-126 187 -126 187 -126 184 C-132.6 184 -139.2 184 -146 184 C-146.32439876 161.87751808 -146.57407878 139.75561096 -146.72537041 117.63122749 C-146.79749306 107.35781909 -146.89577356 97.08591754 -147.05615234 86.81347656 C-147.19591116 77.85748076 -147.28606399 68.90257626 -147.31723893 59.94552028 C-147.33545824 55.20423988 -147.37810562 50.46608066 -147.48022079 45.72580338 C-147.57568218 41.25795566 -147.60448617 36.79449435 -147.58350754 32.32572365 C-147.5873411 30.69132258 -147.61496025 29.05676621 -147.66887665 27.4232502 C-148.04573634 15.41028143 -148.04573634 15.41028143 -144.59806299 11.34824133 C-140.77048964 7.91787402 -136.50056253 5.44293967 -132 3 C-131.01 2.34 -130.02 1.68 -129 1 C-128.01 1 -127.02 1 -126 1 C-125.99120064 1.90629654 -125.99120064 1.90629654 -125.98222351 2.8309021 C-125.91794806 9.15856234 -125.83344292 15.48572995 -125.73754883 21.81298828 C-125.70443543 24.16969275 -125.67636187 26.52647394 -125.65356445 28.88330078 C-125.61976808 32.28451012 -125.56743939 35.68502496 -125.51171875 39.0859375 C-125.50532883 40.12801361 -125.4989389 41.17008972 -125.49235535 42.2437439 C-125.26924497 53.51845181 -122.37463753 64.61165357 -114.18359375 72.8203125 C-104.42577999 80.66598901 -94.56331727 81.62715771 -82.51171875 81.46655273 C-80.1086858 81.43730141 -77.70782652 81.44603537 -75.3046875 81.45898438 C-73.76821849 81.45275385 -72.23175637 81.44436829 -70.6953125 81.43359375 C-69.98174591 81.43652939 -69.26817932 81.43946503 -68.5329895 81.44248962 C-65.46615358 81.38426851 -63.27555804 81.14717117 -60.55029297 79.69165039 C-58.65596312 77.94416441 -58.65596312 77.94416441 -58.5 74.5 C-58.65393794 71.0513873 -58.65393794 71.0513873 -60.56884766 69.30664062 C-63.82983288 67.55400024 -66.78734976 67.5777616 -70.3984375 67.59375 C-71.46730698 67.57749573 -71.46730698 67.57749573 -72.55776978 67.56091309 C-74.83027231 67.52672376 -77.10227444 67.51107942 -79.375 67.5 C-82.36245593 67.48536808 -85.34880637 67.45155358 -88.3359375 67.40625 C-89.01425629 67.40927124 -89.69257507 67.41229248 -90.39144897 67.41540527 C-95.93344912 67.32883981 -99.91549473 65.86571178 -104.046875 62.16796875 C-104.60890625 61.51441406 -105.1709375 60.86085938 -105.75 60.1875 C-106.32234375 59.54167969 -106.8946875 58.89585937 -107.484375 58.23046875 C-111.48080544 52.34912395 -111.25181482 46.46324527 -111.125 39.625 C-111.11597656 38.69816406 -111.10695313 37.77132812 -111.09765625 36.81640625 C-111.07422937 34.54399923 -111.04142748 32.2721382 -111 30 C-110.34 30 -109.68 30 -109 30 C-107.83657379 31.16342621 -106.67569504 32.32950422 -105.52734375 33.5078125 C-92.59950717 46.13807739 -76.19210289 48.39688026 -58.86181641 48.37084961 C-43.28227149 48.03726143 -28.92190345 42.38972332 -17.64453125 31.5390625 C-16 30 -16 30 -15 30 C-14.91179073 33.16648655 -14.8592095 36.33265092 -14.8125 39.5 C-14.78736328 40.386875 -14.76222656 41.27375 -14.73632812 42.1875 C-14.65741299 49.34247225 -15.94229576 54.51773129 -19.625 60.75 C-22.98931413 63.93724497 -26.72840189 65.32289604 -31 67 C-32.35601334 67.57902759 -33.71040029 68.16189159 -35.0625 68.75 C-36.031875 69.1625 -37.00125 69.575 -38 70 C-38 73.3 -38 76.6 -38 80 C-31.58106303 82.13964566 -26.5002867 80.8721848 -20.48828125 78.25390625 C-11.64078798 73.79543633 -5.92347447 67.41918305 -2.44921875 58.11474609 C-0.54491036 52.28500745 -0.52323816 46.61538245 -0.48828125 40.52734375 C-0.47033005 39.3636879 -0.45237885 38.20003204 -0.43388367 37.00111389 C-0.38004383 33.31327858 -0.34596881 29.62557076 -0.3125 25.9375 C-0.27930378 23.42511257 -0.24481201 20.91274191 -0.20898438 18.40039062 C-0.12433248 12.26704147 -0.05587186 6.13367526 0 0 Z " fill="#A54A34" transform="translate(371,291)"/>
<path d="M0 0 C0.00879936 0.90629654 0.00879936 0.90629654 0.01777649 1.8309021 C0.08205194 8.15856234 0.16655708 14.48572995 0.26245117 20.81298828 C0.29556457 23.16969275 0.32363813 25.52647394 0.34643555 27.88330078 C0.38023192 31.28451012 0.43256061 34.68502496 0.48828125 38.0859375 C0.49467117 39.12801361 0.5010611 40.17008972 0.50764465 41.2437439 C0.73075503 52.51845181 3.62536247 63.61165357 11.81640625 71.8203125 C21.57422001 79.66598901 31.43668273 80.62715771 43.48828125 80.46655273 C45.8913142 80.43730141 48.29217348 80.44603537 50.6953125 80.45898438 C52.23178151 80.45275385 53.76824363 80.44436829 55.3046875 80.43359375 C56.01825409 80.43652939 56.73182068 80.43946503 57.4670105 80.44248962 C60.53384642 80.38426851 62.72444196 80.14717117 65.44970703 78.69165039 C67.34403688 76.94416441 67.34403688 76.94416441 67.5 73.5 C67.34606206 70.0513873 67.34606206 70.0513873 65.43115234 68.30664062 C62.17016712 66.55400024 59.21265024 66.5777616 55.6015625 66.59375 C54.53269302 66.57749573 54.53269302 66.57749573 53.44223022 66.56091309 C51.16972769 66.52672376 48.89772556 66.51107942 46.625 66.5 C43.63754407 66.48536808 40.65119363 66.45155358 37.6640625 66.40625 C36.98574371 66.40927124 36.30742493 66.41229248 35.60855103 66.41540527 C30.06655088 66.32883981 26.08450527 64.86571178 21.953125 61.16796875 C21.39109375 60.51441406 20.8290625 59.86085938 20.25 59.1875 C19.67765625 58.54167969 19.1053125 57.89585937 18.515625 57.23046875 C14.51919456 51.34912395 14.74818518 45.46324527 14.875 38.625 C14.88402344 37.69816406 14.89304687 36.77132812 14.90234375 35.81640625 C14.92577063 33.54399923 14.95857252 31.2721382 15 29 C15.66 29 16.32 29 17 29 C18.16342621 30.16342621 19.32430496 31.32950422 20.47265625 32.5078125 C33.40049283 45.13807739 49.80789711 47.39688026 67.13818359 47.37084961 C82.71772851 47.03726143 97.07809655 41.38972332 108.35546875 30.5390625 C110 29 110 29 111 29 C111.08820927 32.16648655 111.1407905 35.33265092 111.1875 38.5 C111.21263672 39.386875 111.23777344 40.27375 111.26367188 41.1875 C111.34258701 48.34247225 110.05770424 53.51773129 106.375 59.75 C103.01068587 62.93724497 99.27159811 64.32289604 95 66 C93.64398666 66.57902759 92.28959971 67.16189159 90.9375 67.75 C89.968125 68.1625 88.99875 68.575 88 69 C88 72.3 88 75.6 88 79 C94.3853904 81.12846347 99.26108515 79.80393374 105.27734375 77.36328125 C108.99370364 75.50243534 112.47554129 73.20278669 116 71 C116 87.17 116 103.34 116 120 C108.33394531 120.03738281 100.66789062 120.07476562 92.76953125 120.11328125 C87.91599303 120.14355343 83.06249182 120.17469644 78.20898438 120.20898438 C70.50351812 120.26333696 62.79812507 120.31444591 55.0925293 120.34643555 C48.88084081 120.37242479 42.66939775 120.41279658 36.45786095 120.46318626 C34.08680967 120.47988455 31.71571591 120.49138033 29.34461403 120.49761391 C26.02611116 120.50722253 22.70824042 120.53524409 19.38989258 120.56762695 C17.91606361 120.56547432 17.91606361 120.56547432 16.41246033 120.5632782 C11.48466025 120.6313848 7.96007896 120.72074441 4 124 C-0.02106126 129.47940584 0.52518545 135.66308682 0.48828125 142.1796875 C0.47033005 143.3475882 0.45237885 144.51548889 0.43388367 145.71878052 C0.37983772 149.43748397 0.34590222 153.15605946 0.3125 156.875 C0.279322 159.40105945 0.2448319 161.92710203 0.20898438 164.453125 C0.124114 170.63532428 0.0572748 176.81748597 0 183 C-6.6 183 -13.2 183 -20 183 C-20.32439876 160.87751808 -20.57407878 138.75561096 -20.72537041 116.63122749 C-20.79749306 106.35781909 -20.89577356 96.08591754 -21.05615234 85.81347656 C-21.19591116 76.85748076 -21.28606399 67.90257626 -21.31723893 58.94552028 C-21.33545824 54.20423988 -21.37810562 49.46608066 -21.48022079 44.72580338 C-21.57568218 40.25795566 -21.60448617 35.79449435 -21.58350754 31.32572365 C-21.5873411 29.69132258 -21.61496025 28.05676621 -21.66887665 26.4232502 C-22.04573634 14.41028143 -22.04573634 14.41028143 -18.59806299 10.34824133 C-14.77048964 6.91787402 -10.50056253 4.44293967 -6 2 C-3 0 -3 0 0 0 Z " fill="#D2694F" transform="translate(245,292)"/>
<path d="M0 0 C0.86059525 -0.00852997 1.72119049 -0.01705994 2.60786438 -0.02584839 C3.54404099 -0.02494202 4.48021759 -0.02403564 5.44476318 -0.02310181 C6.93329048 -0.03317764 6.93329048 -0.03317764 8.45188904 -0.04345703 C11.73569739 -0.06246926 15.01930163 -0.06636314 18.30316162 -0.06851196 C20.58756596 -0.0749386 22.87196947 -0.08166686 25.15637207 -0.08868408 C29.9479971 -0.1006656 34.73955 -0.1043641 39.53118896 -0.10317993 C45.66236314 -0.10297692 51.7930729 -0.13025764 57.92413712 -0.16472435 C62.64428824 -0.18699717 67.36432777 -0.19101731 72.08452606 -0.18996048 C74.34429268 -0.19231668 76.60406236 -0.2011412 78.86377716 -0.21662521 C82.03042271 -0.23628833 85.19606924 -0.23044484 88.36273193 -0.21841431 C89.29081161 -0.22965332 90.2188913 -0.24089233 91.1750946 -0.25247192 C97.78073027 -0.18891401 103.26731718 1.11963219 108.22362137 5.71474648 C112.90361256 10.99405759 112.835158 15.68328047 112.90081787 22.47055054 C112.90888962 23.26717102 112.91696136 24.0637915 112.92527771 24.884552 C112.9390855 26.56895798 112.94982238 28.25339155 112.95770264 29.93783569 C112.96921107 31.65048492 112.98964502 33.36309859 113.01922607 35.07553101 C113.06213922 37.56161654 113.07810407 40.04663946 113.08831787 42.53305054 C113.10582596 43.28854187 113.12333405 44.0440332 113.14137268 44.82241821 C113.11915248 50.34603087 111.82056002 54.68755784 108.66253662 59.26742554 C104.34963493 62.70014321 100.84537235 64.38388095 95.35594177 64.41459656 C94.03753296 64.42532951 94.03753296 64.42532951 92.69248962 64.4362793 C91.73087418 64.4389682 90.76925873 64.4416571 89.77850342 64.44442749 C88.76357819 64.45099869 87.74865295 64.45756989 86.70297241 64.46434021 C83.33923267 64.4840755 79.97553756 64.49573568 76.61175537 64.50570679 C75.46357645 64.50978231 74.31539753 64.51385784 73.13242531 64.51805687 C67.05660812 64.53891747 60.98081352 64.55321989 54.90496826 64.56259155 C48.62674866 64.57366264 42.34888282 64.60807102 36.07078838 64.64776325 C31.24521724 64.67389401 26.4197309 64.68228021 21.59409523 64.68587303 C19.27963684 64.69074725 16.96518245 64.70238485 14.65079308 64.72091103 C11.41182683 64.74522888 8.17378279 64.74435065 4.93475342 64.73739624 C3.97921066 64.7502063 3.02366791 64.76301636 2.03916931 64.7762146 C-4.72445004 64.72328987 -8.03997597 63.4004302 -12.98199463 58.70492554 C-17.44986608 53.20600683 -17.50910225 48.94627839 -17.57574463 42.02914429 C-17.58381638 41.23015213 -17.59188812 40.43115997 -17.60020447 39.60795593 C-17.61401079 37.91935372 -17.62474832 36.230724 -17.63262939 34.54208374 C-17.64414996 32.822599 -17.66460314 31.10315003 -17.69415283 29.38388062 C-17.73698316 26.89038971 -17.7530185 24.39795811 -17.76324463 21.90414429 C-17.78950676 20.76316536 -17.78950676 20.76316536 -17.81629944 19.59913635 C-17.79394737 14.0421664 -16.48749271 10.85975879 -13.33746338 6.26742554 C-9.25877572 2.49463946 -5.62843475 0.02530553 0 0 Z " fill="#020201" transform="translate(260.33746337890625,118.73257446289063)"/>
<path d="M0 0 C10.56 0 21.12 0 32 0 C34.49366872 2.49366872 34.24802436 3.97915514 34.2861352 7.38269472 C34.28440223 8.13888959 34.28266927 8.89508447 34.28088379 9.67419434 C34.28682603 10.47582992 34.29276828 11.27746551 34.29889059 12.10339308 C34.3163136 14.80529848 34.31928528 17.50702715 34.32226562 20.20898438 C34.3315195 22.14064413 34.34156849 24.07230022 34.35235596 26.00395203 C34.3786548 31.26726958 34.39150674 36.53053603 34.40037727 41.79390907 C34.40623794 45.08697318 34.41444798 48.38002335 34.42338562 51.67308044 C34.45076509 61.98875315 34.47007702 72.30439396 34.4777894 82.6201005 C34.48672192 94.50184828 34.52167064 106.38313257 34.57979059 118.26473951 C34.62319469 127.45989898 34.64320742 136.65492899 34.64587164 145.85018969 C34.64795801 151.3349745 34.65956009 156.81932455 34.69551086 162.30400085 C34.72876278 167.4784826 34.73264533 172.65220995 34.71523285 177.82676125 C34.71370673 179.71236522 34.72218152 181.59801211 34.74214935 183.48351097 C34.94038697 203.39300965 30.15667445 220.55632981 16.1875 235.3125 C1.56277224 249.25341696 -14.61571794 252.22715956 -34 252 C-31.7157509 249.59935604 -29.26868227 247.61904021 -26.625 245.625 C-11.1319002 233.63034209 -5.05571943 219.95894788 0 201 C0.33 190.44 0.66 179.88 1 169 C-31.67 169 -64.34 169 -98 169 C-98 168.67 -98 168.34 -98 168 C-96.73990112 167.99635437 -95.47980225 167.99270874 -94.18151855 167.98895264 C-82.29321121 167.95197534 -70.40516224 167.89417236 -58.5170517 167.81609726 C-52.40556277 167.77662622 -46.29421785 167.74443569 -40.18261719 167.72900391 C-34.28208156 167.71383519 -28.38194186 167.67938496 -22.48158264 167.63169098 C-20.23303167 167.61687956 -17.98442418 167.60895913 -15.73582458 167.60811615 C-12.58061755 167.60574412 -9.42650257 167.57864392 -6.27148438 167.54589844 C-5.34647125 167.5509288 -4.42145813 167.55595917 -3.46841431 167.56114197 C2.36715136 167.46773965 7.23315638 166.56248828 12 163 C15.89272126 157.82111343 16.5913967 152.70043143 16.49609375 146.37109375 C16.4982766 145.1810952 16.4982766 145.1810952 16.50050354 143.96705627 C16.49885493 142.3023 16.48741109 140.63752681 16.46655273 138.97290039 C16.43753155 136.4402532 16.44597833 133.90969633 16.45898438 131.37695312 C16.45274727 129.74998994 16.44435654 128.12303329 16.43359375 126.49609375 C16.43652939 125.74798935 16.43946503 124.99988495 16.44248962 124.22911072 C16.33468036 118.15691128 15.19189329 113.19189329 10.75 108.75 C7.4284853 106.53254965 7.4284853 106.53254965 1 104 C0.67 69.68 0.34 35.36 0 0 Z " fill="#B6A9A9" transform="translate(356,15)"/>
<path d="M0 0 C24.08208385 20.06840321 34.7847393 55.02290429 45.69026184 83.41395569 C49.39985111 93.06904325 53.21075817 102.68314067 57.02719116 112.29638672 C59.70797942 119.05108184 62.37967218 125.80935141 65.04260254 132.57110596 C65.70054975 134.24030201 66.35971521 135.90901821 67.01989746 137.57733154 C68.01395895 140.09063358 69.00357513 142.60564415 69.9921875 145.12109375 C70.29577179 145.88615738 70.59935608 146.65122101 70.91213989 147.43946838 C73 152.7718024 73 152.7718024 73 155 C48.91 155 24.82 155 0 155 C0 103.85 0 52.7 0 0 Z " fill="#DED1CC" transform="translate(406,320)"/>
<path d="M0 0 C2.64590014 -0.02684679 5.29153096 -0.04676357 7.9375 -0.0625 C8.69224609 -0.07087891 9.44699219 -0.07925781 10.22460938 -0.08789062 C12.14994313 -0.09652441 14.07535581 -0.05224333 16 0 C17.67598752 1.67598752 17.12470721 3.72865163 17.13374341 5.96644545 C17.13151268 6.68267592 17.12928196 7.39890639 17.12698364 8.13684082 C17.12854363 8.89244687 17.13010362 9.64805291 17.13171089 10.42655611 C17.13572376 12.97774951 17.13253014 15.5288842 17.12939453 18.08007812 C17.13074845 19.90124039 17.13252832 21.72240238 17.13470459 23.54356384 C17.1392801 28.50416416 17.13748888 33.46474377 17.1343255 38.42534447 C17.13180251 43.6045678 17.13413927 48.7837893 17.13571167 53.9630127 C17.13753354 62.66235677 17.13512659 71.36169237 17.13037109 80.06103516 C17.12492844 90.13404726 17.12669108 100.20703914 17.1321975 110.28005075 C17.13672812 118.91186398 17.13737943 127.5436711 17.13475883 136.17548513 C17.13319578 141.33818996 17.13300306 146.50088526 17.13629532 151.66358948 C17.1391733 156.51604223 17.13719969 161.36846876 17.13140106 166.22091866 C17.13007307 168.00721251 17.13046824 169.79350856 17.13266373 171.57980156 C17.13537371 174.00761774 17.13199599 176.43534852 17.12698364 178.86315918 C17.12921436 179.57938965 17.13144509 180.29562013 17.13374341 181.03355455 C17.11414986 185.88585014 17.11414986 185.88585014 16 187 C13.1156618 187.08865208 10.25537842 187.11521296 7.37109375 187.09765625 C6.07474754 187.09553383 6.07474754 187.09553383 4.75221252 187.09336853 C1.98060708 187.08775239 -0.7909188 187.07519719 -3.5625 187.0625 C-5.4368478 187.05748708 -7.31119685 187.05292381 -9.18554688 187.04882812 C-13.79039544 187.03777772 -18.39518421 187.0205023 -23 187 C-24.30846796 184.38306409 -24.16041878 182.36894283 -24.2109375 179.44140625 C-24.23929687 178.33345703 -24.26765625 177.22550781 -24.296875 176.08398438 C-24.34886815 173.74039297 -24.39316622 171.39661794 -24.4296875 169.05273438 C-24.460625 167.94349609 -24.4915625 166.83425781 -24.5234375 165.69140625 C-24.54325684 164.67248291 -24.56307617 163.65355957 -24.58349609 162.60375977 C-25.06457367 159.59631994 -25.58237166 158.78388443 -28 157 C-29.32 156.34 -30.64 155.68 -32 155 C-32 149.39 -32 143.78 -32 138 C-30.02 137.01 -28.04 136.02 -26 135 C-24.47893366 131.95786733 -24.62570662 128.71952428 -24.4375 125.375 C-24.37272461 124.31539062 -24.37272461 124.31539062 -24.30664062 123.234375 C-24.20055249 121.48981463 -24.09977111 119.74493303 -24 118 C-23.13117188 117.90203125 -22.26234375 117.8040625 -21.3671875 117.703125 C-13.49532095 116.6817195 -8.2051067 115.76748957 -2.8817749 109.51010132 C-0.33520892 104.75995581 -0.42655691 100.89763189 -0.45410156 95.58837891 C-0.44376389 94.55362427 -0.43342621 93.51886963 -0.42277527 92.45275879 C-0.39335588 89.04386768 -0.39184823 85.63557056 -0.390625 82.2265625 C-0.37564284 79.8585802 -0.35891563 77.49060835 -0.34051514 75.12265015 C-0.29683384 68.89857502 -0.27684059 62.67464087 -0.26177979 56.45043945 C-0.2422117 50.09578107 -0.20024126 43.74127498 -0.16015625 37.38671875 C-0.08484549 24.92452613 -0.03455908 12.46236759 0 0 Z " fill="#F89726" transform="translate(152,310)"/>
<path d="M0 0 C31.68 0 63.36 0 96 0 C96 15.84 96 31.68 96 48 C64.32 48 32.64 48 0 48 C0 32.16 0 16.32 0 0 Z " fill="#D1684F" transform="translate(260,427)"/>
<path d="M0 0 C0.33 0 0.66 0 1 0 C1 51.15 1 102.3 1 155 C-7.58 155 -16.16 155 -25 155 C-25.22682214 139.92574948 -25.41056738 124.85228239 -25.51812172 109.77675056 C-25.56941682 102.77485652 -25.63918456 95.77410751 -25.75439453 88.77294922 C-25.86573537 82.00361341 -25.92300894 75.23546187 -25.94877243 68.46526718 C-25.96710808 65.89540887 -26.00291112 63.32560803 -26.05730057 60.75625992 C-26.39378132 44.18690263 -24.90300513 32.53757945 -15 19 C-14.14455334 17.78404099 -13.28968007 16.56767833 -12.43545532 15.3508606 C-10.37473256 12.48591123 -8.2331808 9.73181086 -6 7 C-5.38640625 6.24589844 -4.7728125 5.49179687 -4.140625 4.71484375 C-2.80002215 3.10931224 -1.40698764 1.54768641 0 0 Z " fill="#F2E9E5" transform="translate(209,320)"/>
<path d="M0 0 C4.31916321 -0.12547851 8.63730567 -0.21520018 12.95776367 -0.2746582 C14.42116823 -0.29949426 15.88445296 -0.33337629 17.34741211 -0.37719727 C30.79597309 -0.76935084 42.77568278 1.47919085 53 11 C60.07404923 17.83824759 64.75199929 26.48834352 65.12939453 36.39746094 C65.13108643 38.2967334 65.13108643 38.2967334 65.1328125 40.234375 C65.13376923 40.91300598 65.13472595 41.59163696 65.13571167 42.29083252 C65.13638898 43.71618747 65.13456614 45.14154559 65.13037109 46.56689453 C65.12498301 48.75690528 65.13034818 50.94671405 65.13671875 53.13671875 C65.13605854 54.52343795 65.13477857 55.91015703 65.1328125 57.296875 C65.13168457 58.55854492 65.13055664 59.82021484 65.12939453 61.12011719 C65 64 65 64 64 65 C61.5958699 65.13834386 59.22259618 65.21314699 56.81640625 65.23828125 C56.08687241 65.246353 55.35733856 65.25442474 54.60569763 65.26274109 C53.05299264 65.27660757 51.50025684 65.2873182 49.94750977 65.29516602 C47.60305929 65.31220522 45.26008451 65.35604137 42.91601562 65.40039062 C30.60275528 65.52996406 21.88024806 63.41619254 12.328125 55.3359375 C3.77621835 46.75533317 -0.22635337 36.87124229 -0.29296875 24.90234375 C-0.28439054 21.91340818 -0.23828196 18.92597073 -0.1875 15.9375 C-0.17242519 14.38868489 -0.15874173 12.83985559 -0.14648438 11.29101562 C-0.11370138 7.52698822 -0.06207498 3.76365362 0 0 Z " fill="#E23B52" transform="translate(32,84)"/>
<path d="M0 0 C1.044478 -0.00686325 2.08895599 -0.0137265 3.16508484 -0.02079773 C6.61548481 -0.03908931 10.06543112 -0.03522472 13.51586914 -0.02954102 C15.91573739 -0.03410166 18.31560433 -0.03940689 20.71546936 -0.04542542 C25.74493719 -0.05436118 30.77424628 -0.05192797 35.80371094 -0.04199219 C42.24782849 -0.03050208 48.69139812 -0.05071291 55.13544369 -0.07990932 C60.09143045 -0.0982583 65.0472856 -0.09798141 70.00329781 -0.0922718 C72.37914359 -0.09211843 74.7549982 -0.0981759 77.13081169 -0.11056328 C80.45344254 -0.12544622 83.77505713 -0.11481495 87.09765625 -0.09765625 C88.07810913 -0.10732422 89.05856201 -0.11699219 90.06872559 -0.12695312 C95.89861894 -0.0639337 99.1560598 0.55551632 103.61352539 4.40405273 C107.76070699 9.92869108 107.08114494 16.45107657 107.08227539 23.06420898 C107.09369568 24.89815468 107.09369568 24.89815468 107.10534668 26.76914978 C107.11613277 29.34868327 107.11900688 31.92826039 107.11450195 34.5078125 C107.1135279 38.45638494 107.15520779 42.40302541 107.19946289 46.35131836 C107.20466868 48.85977785 107.2073581 51.36824409 107.20727539 53.87670898 C107.22367065 55.05701187 107.24006592 56.23731476 107.25695801 57.4533844 C107.1800691 66.55419366 107.1800691 66.55419366 104.2097168 69.65917969 C101.55432268 71.44384226 100.59343263 72.02827311 97.48852539 71.52905273 C96.4946582 71.40916992 96.4946582 71.40916992 95.48071289 71.28686523 C92.50504499 69.87995949 91.94795537 68.44120128 90.61352539 65.40405273 C90.25808709 61.58724336 90.40518148 57.80529979 90.53930664 53.97827148 C90.56198608 53.00039673 90.58466553 52.02252197 90.60803223 51.01501465 C90.69704463 47.37340586 90.81314288 43.73249977 90.92602539 40.09155273 C91.26633789 27.87124023 91.26633789 27.87124023 91.61352539 15.40405273 C59.93352539 15.40405273 28.25352539 15.40405273 -4.38647461 15.40405273 C-3.93911903 32.00854194 -3.93911903 32.00854194 -3.45800781 48.61206055 C-3.40819976 50.69373735 -3.3595375 52.77544202 -3.31225586 54.85717773 C-3.27531616 55.93789551 -3.23837646 57.01861328 -3.20031738 58.13208008 C-3.1796521 59.16703613 -3.15898682 60.20199219 -3.13769531 61.26831055 C-3.11326859 62.16543762 -3.08884186 63.0625647 -3.06367493 63.98687744 C-3.46022506 66.95630785 -4.30598312 68.27174978 -6.38647461 70.40405273 C-10.35991622 71.50778652 -12.47647233 71.81948856 -16.26147461 70.09155273 C-18.38647461 68.40405273 -18.38647461 68.40405273 -19.38647461 66.40405273 C-19.49749599 64.65438117 -19.54567171 62.90056086 -19.56347656 61.14746094 C-19.5763118 60.04904373 -19.58914703 58.95062653 -19.60237122 57.81892395 C-19.60975815 56.62627426 -19.61714508 55.43362457 -19.62475586 54.20483398 C-19.63282761 52.98128708 -19.64089935 51.75774017 -19.6492157 50.49711609 C-19.66306802 47.90206321 -19.67378501 45.30699202 -19.68164062 42.71191406 C-19.69882856 38.75021582 -19.74270354 34.7893572 -19.78686523 30.82788086 C-19.79699407 28.30770471 -19.80550957 25.78752146 -19.81225586 23.26733398 C-19.82976395 22.08480545 -19.84727203 20.90227692 -19.86531067 19.68391418 C-19.84790676 13.05578001 -19.56726257 8.6779272 -15.38647461 3.40405273 C-10.69257025 -0.49232616 -5.80354551 -0.02659148 0 0 Z " fill="#030101" transform="translate(264.386474609375,411.595947265625)"/>
<path d="M0 0 C0.91120605 0.00202423 1.82241211 0.00404846 2.76123047 0.00613403 C3.71562012 0.00438171 4.67000977 0.00262939 5.65332031 0.00082397 C8.82472524 -0.0035963 11.99607492 -0.00065593 15.16748047 0.00271606 C17.36083995 0.00204308 19.55419937 0.00107309 21.74755859 -0.00018311 C26.35108142 -0.00166032 30.95458489 0.00049523 35.55810547 0.00515747 C41.47352642 0.01085477 47.388902 0.00757589 53.30432129 0.00158501 C57.83545273 -0.00201998 62.36657332 -0.00088231 66.89770508 0.0017128 C69.07950852 0.00238224 71.26131293 0.00155305 73.44311523 -0.00076675 C76.48668036 -0.00329225 79.53017093 0.00054587 82.57373047 0.00613403 C83.48493652 0.0041098 84.39614258 0.00208557 85.33496094 0 C91.55321817 0.02126627 91.55321817 0.02126627 92.66748047 1.13552856 C92.76826167 3.49951325 92.80721262 5.83364168 92.80029297 8.19802856 C92.80124969 8.90451538 92.80220642 9.6110022 92.80319214 10.33889771 C92.80387379 11.8352365 92.80202051 13.33157823 92.79785156 14.82791138 C92.79250304 17.12583014 92.79779698 19.42355343 92.80419922 21.72146606 C92.80353843 23.17198733 92.80225727 24.62250848 92.80029297 26.07302856 C92.8023172 26.76469116 92.80434143 27.45635376 92.806427 28.16897583 C92.78243271 33.02057633 92.78243271 33.02057633 91.66748047 34.13552856 C88.62882286 34.23617055 85.61285317 34.27167446 82.57373047 34.2649231 C81.61934082 34.26667542 80.66495117 34.26842773 79.68164062 34.27023315 C76.51023569 34.27465343 73.33888602 34.27171306 70.16748047 34.26834106 C67.97412098 34.26901405 65.78076157 34.26998404 63.58740234 34.27124023 C58.98387952 34.27271745 54.38037605 34.2705619 49.77685547 34.26589966 C43.86143452 34.26020236 37.94605893 34.26348124 32.03063965 34.26947212 C27.49950821 34.27307711 22.96838762 34.27193944 18.43725586 34.26934433 C16.25545242 34.26867489 14.07364801 34.26950408 11.8918457 34.27182388 C8.84828057 34.27434938 5.80479001 34.27051126 2.76123047 34.2649231 C1.85002441 34.26694733 0.93881836 34.26897156 0 34.27105713 C-6.21825724 34.24979086 -6.21825724 34.24979086 -7.33251953 33.13552856 C-7.43330073 30.77154388 -7.47225168 28.43741545 -7.46533203 26.07302856 C-7.46628876 25.36654175 -7.46724548 24.66005493 -7.4682312 23.93215942 C-7.46891286 22.43582063 -7.46705958 20.93947889 -7.46289062 19.44314575 C-7.4575421 17.14522699 -7.46283604 14.8475037 -7.46923828 12.54959106 C-7.4685775 11.0990698 -7.46729633 9.64854865 -7.46533203 8.19802856 C-7.46735626 7.50636597 -7.46938049 6.81470337 -7.47146606 6.1020813 C-7.43906915 -0.44851294 -6.40016495 0.02188839 0 0 Z " fill="#A44A34" transform="translate(265.33251953125,133.86447143554688)"/>
<path d="M0 0 C0.80063873 -0.00350464 1.60127747 -0.00700928 2.42617798 -0.01062012 C5.06488798 -0.01940081 7.70332842 -0.01360068 10.34204102 -0.00683594 C12.18140209 -0.00818377 14.02076282 -0.0101253 15.86012268 -0.01263428 C19.71260983 -0.01558069 23.56500413 -0.01130389 27.41748047 -0.00195312 C32.34811272 0.00943308 37.27852703 0.00288414 42.20915127 -0.00909805 C46.00704073 -0.01633651 49.80487881 -0.01401946 53.60276985 -0.00884247 C55.42039071 -0.00751105 57.23801628 -0.00913586 59.05563164 -0.01380157 C61.59971281 -0.01889856 64.14344473 -0.01111178 66.6875 0 C67.80752663 -0.00607269 67.80752663 -0.00607269 68.95018005 -0.01226807 C73.30978968 0.02288603 76.8544608 0.65456142 80.90844727 2.25878906 C80.31719153 13.88681854 76.24859489 24.95227106 67.90844727 33.25878906 C61.93630803 38.30343697 55.28748072 40.89991771 47.90844727 43.25878906 C46.91844727 43.58878906 45.92844727 43.91878906 44.90844727 44.25878906 C41.39225946 44.5161567 37.87056 44.49022626 34.34594727 44.50878906 C33.39397461 44.52941406 32.44200195 44.55003906 31.46118164 44.57128906 C19.06330295 44.63880644 8.67027954 40.51478663 -0.71655273 32.38378906 C-8.15519501 24.43152625 -13.09155273 13.08315668 -13.09155273 2.25878906 C-8.74493397 0.1144966 -4.74953412 -0.02568196 0 0 Z " fill="#F39381" transform="translate(274.091552734375,280.7412109375)"/>
<path d="M0 0 C6.13056003 2.56797896 10.55870759 8.11598342 15.1875 12.75 C15.97009186 13.53298462 15.97009186 13.53298462 16.76849365 14.33178711 C31.75327566 29.40636774 41.47406916 44.48097595 41.58030987 66.29312229 C41.56615182 69.0278561 41.52773239 71.76161802 41.48828125 74.49609375 C41.47893139 76.42520725 41.47182559 78.3543328 41.46684265 80.28346252 C41.4479436 85.30927533 41.3989947 90.3343413 41.34332275 95.35986328 C41.29175692 100.50868636 41.26924966 105.6576326 41.24414062 110.80664062 C41.19085572 120.8714181 41.10575578 130.93564644 41 141 C36.05 141 31.1 141 26 141 C25.9906543 138.58405518 25.98130859 136.16811035 25.97167969 133.67895508 C25.93775039 125.65219847 25.88211393 117.62569465 25.81609726 109.59914112 C25.77676766 104.7377122 25.74450852 99.87646049 25.72900391 95.01489258 C25.71374101 90.31380257 25.67912715 85.61320022 25.63169098 80.91232872 C25.61697576 79.128448 25.60896472 77.34449762 25.60811615 75.56055641 C25.59013197 56.69179556 21.58541039 42.42476326 8.06640625 28.67578125 C5.9166032 26.53568034 3.7412131 24.42309819 1.5625 22.3125 C0.43721351 21.20733399 -0.68714204 20.10121928 -1.81054688 18.99414062 C-4.52978654 16.31839938 -7.26119456 13.65570479 -10 11 C-9.05052441 9.88322508 -8.09975103 8.76755346 -7.1484375 7.65234375 C-6.35445557 6.72023071 -6.35445557 6.72023071 -5.54443359 5.76928711 C-3.78334607 3.7518035 -1.93011408 1.85587892 0 0 Z " fill="#B7AAAA" transform="translate(111,154)"/>
<path d="M0 0 C0.66 0 1.32 0 2 0 C3.16342621 1.16342621 4.32430496 2.32950422 5.47265625 3.5078125 C18.40049283 16.13807739 34.80789711 18.39688026 52.13818359 18.37084961 C67.71772851 18.03726143 82.07809655 12.38972332 93.35546875 1.5390625 C95 0 95 0 96 0 C96.08820927 3.16648655 96.1407905 6.33265092 96.1875 9.5 C96.21263672 10.386875 96.23777344 11.27375 96.26367188 12.1875 C96.34258701 19.34247225 95.05770424 24.51773129 91.375 30.75 C87.53229394 34.39045837 82.83272475 35.94173679 77.9296875 37.7734375 C74.23008332 39.13741157 74.23008332 39.13741157 71.80859375 42.09375 C71.54175781 42.7228125 71.27492188 43.351875 71 44 C68.06097651 44.13481759 65.12810441 44.23399416 62.1875 44.3125 C61.35412109 44.35439453 60.52074219 44.39628906 59.66210938 44.43945312 C57.34058232 44.48607013 55.27282729 44.48197528 53 44 C51.05078125 41.54296875 51.05078125 41.54296875 50 39 C47.04794654 37.52397327 44.03527662 37.82319703 40.796875 37.7890625 C39.32681203 37.76098069 37.85676011 37.73231615 36.38671875 37.703125 C34.07178207 37.66197057 31.7570485 37.62508052 29.44189453 37.59863281 C27.20562196 37.57087681 24.97028299 37.52499496 22.734375 37.4765625 C21.70748566 37.4716832 21.70748566 37.4716832 20.65985107 37.46670532 C15.11115384 37.32610323 11.09393521 35.87415194 6.953125 32.16796875 C6.39109375 31.51441406 5.8290625 30.86085938 5.25 30.1875 C4.67765625 29.54167969 4.1053125 28.89585937 3.515625 28.23046875 C-0.48080544 22.34912395 -0.25181482 16.46324527 -0.125 9.625 C-0.11597656 8.69816406 -0.10695313 7.77132813 -0.09765625 6.81640625 C-0.07422937 4.54399923 -0.04142748 2.2721382 0 0 Z " fill="#EFE6E2" transform="translate(260,321)"/>
<path d="M0 0 C1.71487377 2.57231066 2.76464509 4.68081189 3.88500977 7.5234375 C4.25100281 8.44699036 4.61699585 9.37054321 4.99407959 10.32208252 C5.38919739 11.32954529 5.78431519 12.33700806 6.19140625 13.375 C6.60916321 14.43193054 7.02692017 15.48886108 7.45733643 16.57781982 C8.82906279 20.05057278 10.19583451 23.52525263 11.5625 27 C12.50513794 29.38977253 13.44809283 31.77942006 14.39135742 34.16894531 C16.3178084 39.05016595 18.24246415 43.9320892 20.16601562 48.81445312 C22.8256609 55.56216404 25.49682602 62.30525846 28.171875 69.046875 C29.34578604 72.00728732 30.51957024 74.9677499 31.69332886 77.92822266 C32.43925304 79.80892872 33.18561109 81.68946276 33.93240356 83.56982422 C34.96304649 86.16571036 35.99156382 88.76242845 37.01953125 91.359375 C37.47733978 92.51019562 37.47733978 92.51019562 37.94439697 93.68426514 C40 98.88590566 40 98.88590566 40 100 C26.8 100 13.6 100 0 100 C0 67 0 34 0 0 Z " fill="#F2E9E5" transform="translate(406,375)"/>
<path d="M0 0 C0 18.48 0 36.96 0 56 C-13.2 56 -26.4 56 -40 56 C-43.3425502 30.62137809 -43.3425502 30.62137809 -36.06663513 21.00297546 C-33.31967397 17.71528266 -30.37621217 14.67921216 -27.3125 11.6875 C-26.72222015 11.09311127 -26.13194031 10.49872253 -25.52377319 9.88632202 C-23.78278652 8.16710254 -21.99847573 6.51873396 -20.17578125 4.88671875 C-19.65214996 4.38813354 -19.12851868 3.88954834 -18.58901978 3.37585449 C-12.39108532 -1.77132961 -9.26799797 0 0 0 Z " fill="#FBB62D" transform="translate(137,310)"/>
<path d="M0 0 C13.2 0 26.4 0 40 0 C40.020625 5.094375 40.04125 10.18875 40.0625 15.4375 C40.071604 17.04681396 40.08070801 18.65612793 40.09008789 20.31420898 C40.09258545 21.57048096 40.09508301 22.82675293 40.09765625 24.12109375 C40.10289307 25.4145874 40.10812988 26.70808105 40.11352539 28.04077148 C40 31 40 31 39 32 C36.1883662 32.08861992 33.40141745 32.11522355 30.58984375 32.09765625 C29.74780899 32.0962413 28.90577423 32.09482635 28.03822327 32.09336853 C25.33794665 32.08775263 22.63775172 32.07519748 19.9375 32.0625 C18.11132932 32.05748705 16.28515734 32.05292379 14.45898438 32.04882812 C9.97262458 32.03777804 5.48632616 32.02050279 1 32 C-0.46098845 29.0780231 -0.11134901 26.50106525 -0.09765625 23.2421875 C-0.09515869 22.02901855 -0.09266113 20.81584961 -0.09008789 19.56591797 C-0.08098389 18.01791504 -0.07187988 16.46991211 -0.0625 14.875 C-0.041875 9.96625 -0.02125 5.0575 0 0 Z " fill="#A92839" transform="translate(97,381)"/>
<path d="M0 0 C5.011875 -0.103125 10.02375 -0.20625 15.1875 -0.3125 C16.73977295 -0.35802002 18.2920459 -0.40354004 19.89135742 -0.45043945 C33.49591318 -0.58453841 44.69729482 2.97405165 54.640625 12.5859375 C62.09620215 20.6063311 65.12319301 29.43580627 65.1328125 40.234375 C65.13376923 40.91300598 65.13472595 41.59163696 65.13571167 42.29083252 C65.13638898 43.71618747 65.13456614 45.14154559 65.13037109 46.56689453 C65.12498301 48.75690528 65.13034818 50.94671405 65.13671875 53.13671875 C65.13605854 54.52343795 65.13477857 55.91015703 65.1328125 57.296875 C65.13168457 58.55854492 65.13055664 59.82021484 65.12939453 61.12011719 C65 64 65 64 64 65 C62.58429877 65.08651611 61.164405 65.10704904 59.74609375 65.09765625 C58.89208984 65.09443359 58.03808594 65.09121094 57.15820312 65.08789062 C56.26037109 65.07951172 55.36253906 65.07113281 54.4375 65.0625 C53.53580078 65.05798828 52.63410156 65.05347656 51.70507812 65.04882812 C49.46998686 65.03700225 47.23502563 65.0205222 45 65 C44.99589111 64.00782471 44.99178223 63.01564941 44.98754883 61.9934082 C44.96547965 58.24860391 44.91091323 54.50480959 44.84741211 50.76049805 C44.82447073 49.15187391 44.80989349 47.54310466 44.80444336 45.93432617 C44.74708159 31.774794 42.72538761 20.00124667 33 9 C32.54407471 8.38874268 32.08814941 7.77748535 31.6184082 7.14770508 C29.03679846 4.03344204 27.10517639 2.24967563 23.09082031 1.34277344 C19.72435958 1.08833753 16.43942413 1.03116116 13.0625 1.0625 C9.081875 1.041875 5.10125 1.02125 1 1 C1 11.56 1 22.12 1 33 C0.67 33 0.34 33 0 33 C0 22.11 0 11.22 0 0 Z " fill="#A92739" transform="translate(32,84)"/>
<path d="M0 0 C0 15.18 0 30.36 0 46 C-5.94 46 -11.88 46 -18 46 C-20.75010505 19.55944755 -20.75010505 19.55944755 -14.25 11.2890625 C-3.55600212 0 -3.55600212 0 0 0 Z " fill="#F9C539" transform="translate(115,320)"/>
<path d="M0 0 C5.61 0 11.22 0 17 0 C17 10.23 17 20.46 17 31 C11.39 31 5.78 31 0 31 C0 20.77 0 10.54 0 0 Z " fill="#E23B52" transform="translate(98,382)"/>
<path d="M0 0 C4.29 0 8.58 0 13 0 C13 6.6 13 13.2 13 20 C8.71 20 4.42 20 0 20 C0 13.4 0 6.8 0 0 Z " fill="#9F4732" transform="translate(405,108)"/>
<path d="M0 0 C3.96 0 7.92 0 12 0 C12 6.27 12 12.54 12 19 C8.04 19 4.08 19 0 19 C0 12.73 0 6.46 0 0 Z " fill="#A64B35" transform="translate(199,108)"/>
<path d="M0 0 C2.64 0 5.28 0 8 0 C10.98884787 4.99735363 10.61268144 10.35727959 10 16 C7.83823325 20.48366437 5.05446223 23.15091843 1 26 C0.67 26 0.34 26 0 26 C0 17.42 0 8.84 0 0 Z " fill="#F8AC9D" transform="translate(405,143)"/>
<path d="M0 0 C2.64 0 5.28 0 8 0 C8 8.58 8 17.16 8 26 C2.7106678 22.82640068 0.23842028 20.66079839 -2 15 C-2.73516401 9.56878835 -2.80318927 4.81833336 0 0 Z " fill="#F8AC9C" transform="translate(203,143)"/>
<path d="M0 0 C2.9375 2.0625 2.9375 2.0625 5 5 C5.06641554 8.85210127 4.87229157 10.99848005 2.3125 13.9375 C-0.73602877 15.33817538 -2.67926952 15.4842732 -6 15 C-8.375 13.4375 -8.375 13.4375 -10 11 C-10.56783945 7.02512383 -10.62340519 4.93510779 -8.375 1.5625 C-5.24316508 -0.49791771 -3.68455227 -0.6767545 0 0 Z " fill="#080707" transform="translate(369,95)"/>
<path d="M0 0 C2.9375 2.0625 2.9375 2.0625 5 5 C5.06641554 8.85210127 4.87229157 10.99848005 2.3125 13.9375 C-0.73602877 15.33817538 -2.67926952 15.4842732 -6 15 C-8.375 13.4375 -8.375 13.4375 -10 11 C-10.56783945 7.02512383 -10.62340519 4.93510779 -8.375 1.5625 C-5.24316508 -0.49791771 -3.68455227 -0.6767545 0 0 Z " fill="#080707" transform="translate(369,27)"/>
<path d="M0 0 C3.0099077 2.29014716 4.69783903 3.79135614 5.625 7.5 C4.69783903 11.20864386 3.0099077 12.70985284 0 15 C-3.68455227 15.6767545 -5.24316508 15.49791771 -8.375 13.4375 C-10.62340519 10.06489221 -10.56783945 7.97487617 -10 4 C-7.27238925 -0.09141613 -4.79563536 -0.88083098 0 0 Z " fill="#0A0909" transform="translate(340,95)"/>
<path d="M0 0 C2.5 2.125 2.5 2.125 4 5 C4.08104732 8.97131876 3.4688579 10.47755834 0.8125 13.4375 C-2 15 -2 15 -5.125 14.9375 C-9.49189189 13.51351351 -9.49189189 13.51351351 -11 11 C-11.49573337 7.10495209 -11.58016848 4.90506283 -9.4375 1.5625 C-6.03280512 -0.61999672 -3.96569988 -0.63734462 0 0 Z " fill="#080808" transform="translate(341,193)"/>
<path d="M0 0 C2.4375 1.5625 2.4375 1.5625 4 4 C4.5625 7.5 4.5625 7.5 4 11 C1.875 13.5 1.875 13.5 -1 15 C-4.97131876 15.08104732 -6.47755834 14.4688579 -9.4375 11.8125 C-11 9 -11 9 -10.9375 5.875 C-8.96256644 -0.18146292 -6.27169804 -0.77020853 0 0 Z " fill="#090808" transform="translate(253,193)"/>
<path d="M0 0 C2.5 2.125 2.5 2.125 4 5 C4.08104732 8.97131876 3.4688579 10.47755834 0.8125 13.4375 C-2 15 -2 15 -5.125 15 C-8.46294538 13.83897552 -9.4614746 13.16252443 -11 10 C-11.52755517 6.38247881 -11.45932313 4.69817115 -9.4375 1.625 C-6.04129157 -0.63913895 -3.99900698 -0.64269755 0 0 Z " fill="#060606" transform="translate(370,193)"/>
<path d="M0 0 C2.375 1.5625 2.375 1.5625 4 4 C4.56783945 7.97487617 4.62340519 10.06489221 2.375 13.4375 C-0.71685231 15.47161336 -2.36367425 15.60605429 -6 15 C-8.375 13.5 -8.375 13.5 -10 11 C-10.58428517 8.0368395 -10.39344818 6.09840439 -10 3 C-7.21052771 -0.43319666 -4.246332 -0.61925675 0 0 Z " fill="#070707" transform="translate(282,95)"/>
<path d="M0 0 C2.4375 1 2.4375 1 4 3 C4.45352711 6.17468977 4.69511624 7.98984447 4 11 C1.875 13.5625 1.875 13.5625 -1 15 C-4.15548924 14.93689022 -6.13769198 14.48864121 -8.875 12.9375 C-10.71730752 9.76463704 -10.52772961 6.56774951 -10 3 C-7.82867609 -1.08719794 -4.198293 -0.44192558 0 0 Z " fill="#070606" transform="translate(311,193)"/>
<path d="M0 0 C2.4375 1 2.4375 1 4 3 C4.45352711 6.17468977 4.69511624 7.98984447 4 11 C1.875 13.5625 1.875 13.5625 -1 15 C-4.15548924 14.93689022 -6.13769198 14.48864121 -8.875 12.9375 C-10.71730752 9.76463704 -10.52772961 6.56774951 -10 3 C-7.82867609 -1.08719794 -4.198293 -0.44192558 0 0 Z " fill="#070606" transform="translate(282,193)"/>
<path d="M0 0 C2.375 1.5625 2.375 1.5625 4 4 C4.56783945 7.97487617 4.62340519 10.06489221 2.375 13.4375 C-0.71685231 15.47161336 -2.36367425 15.60605429 -6 15 C-8.375 13.4375 -8.375 13.4375 -10 11 C-10.56783945 7.02512383 -10.62340519 4.93510779 -8.375 1.5625 C-5.28314769 -0.47161336 -3.63632575 -0.60605429 0 0 Z " fill="#070606" transform="translate(311,95)"/>
<path d="M0 0 C2.375 1.5625 2.375 1.5625 4 4 C4.5625 7.5 4.5625 7.5 4 11 C1.58140437 13.69500656 -0.00763965 14.80636871 -3.5625 15.5 C-6.96311101 14.80243877 -8.05445623 13.88228706 -10 11 C-10.59002965 8.03793195 -10.39336407 6.09774206 -10 3 C-7.21052771 -0.43319666 -4.246332 -0.61925675 0 0 Z " fill="#060605" transform="translate(253,95)"/>
<path d="M0 0 C1.9375 1.125 1.9375 1.125 3 3 C3.5 6.4375 3.5 6.4375 3 10 C0.9375 12.5 0.9375 12.5 -2 14 C-5.6875 13.9375 -5.6875 13.9375 -9 13 C-11.52185169 9.21722246 -11.72956472 6.44203329 -11 2 C-7.94260267 -2.03576448 -4.55750868 -1.16009312 0 0 Z " fill="#050505" transform="translate(254,28)"/>
</svg>
